<svg xmlns="http://www.w3.org/2000/svg" width="97.838" height="97.92" viewBox="0 0 97.838 97.92">
  <path id="ashtanga" d="M371.005,712.96a2.4,2.4,0,0,1-2.395-2.4v-.835a2.4,2.4,0,0,1-2.168-2.423l.4-27.5a4.961,4.961,0,0,1,1.1-2.871l12.553-14.441c.031-.037.071-.071.105-.106,0-.034-.006-.067-.006-.1V646.124H358.55a3.358,3.358,0,0,1-3.354-3.354v-.718a3.358,3.358,0,0,1,3.354-3.354h68.506a3.358,3.358,0,0,1,3.353,3.354v.718a3.358,3.358,0,0,1-3.353,3.354H403.582v15.611c.121.036.237.073.343.112l45.335,16.686a2.477,2.477,0,0,1,1.558,2.763l.467.131a2.4,2.4,0,0,1,1.66,2.954l-1.049,3.736a2.4,2.4,0,0,1-2.953,1.66l-.858-.241a2.359,2.359,0,0,1-2.661.809l-50.367-17.452a7.629,7.629,0,0,0-1.949-.338l-.895-.01a2.262,2.262,0,0,0-1.227.484l-9.709,9.253a2.18,2.18,0,0,0-.52,1.182l-.5,24.01a2.433,2.433,0,0,1-2.408,2.372h-.139v.72a2.4,2.4,0,0,1-2.395,2.4Zm-1.262-34.46a2.672,2.672,0,0,0-.509,1.335l-.4,27.5,9.013.086.51-24.009a4.477,4.477,0,0,1,1.263-2.867l9.709-9.253a4.584,4.584,0,0,1,2.874-1.145l.924.009a9.89,9.89,0,0,1,2.709.471L446,688.01c.22-.592,2.467-7.166,2.467-7.166a.085.085,0,0,0-.034-.07s-47.848-18.36-48.683-18.36H383.461C382.907,662.414,369.743,678.5,369.743,678.5Zm11.277-52.84a10.62,10.62,0,1,1,10.62,10.62A10.62,10.62,0,0,1,381.02,625.66Z" transform="translate(-355.196 -615.04)" fill="#fff"/>
</svg>
