<svg xmlns="http://www.w3.org/2000/svg" width="97.876" height="80" viewBox="0 0 97.876 80">
  <path id="iyenger" d="M383.315,891.485,356.7,879.074a4.469,4.469,0,0,1-2.478-2.856,4.271,4.271,0,0,1,.681-3.6,5.229,5.229,0,0,1,1.408-1.358,6.89,6.89,0,0,1,4.232-1.6l18.99-.066,1.506-3.542a13.669,13.669,0,0,0,.738-6.456l-1.667-9.456-11.775.44-.151,0a5.3,5.3,0,0,1-4.576-2.926l-7.064-15.565a4.758,4.758,0,0,1,.872-5.215,2.794,2.794,0,0,1,1.912-.776,3.11,3.11,0,0,1,2.764,1.93l6.045,12.67a2.749,2.749,0,0,0,2.36,1.376l12.673-.9a.678.678,0,0,1,.113,0c.03,0,.06,0,.091,0,.132-.011.265,0,.4,0h17.3c.007,0,.014-.023.022-.023a.96.96,0,0,0,.112-.01.621.621,0,0,1,.136-.008l13.2.926A2.75,2.75,0,0,0,416.9,840.7l6.046-12.668a3.107,3.107,0,0,1,2.763-1.929,2.791,2.791,0,0,1,1.913.777,4.759,4.759,0,0,1,.873,5.215l-7.064,15.565a5.306,5.306,0,0,1-4.577,2.926l-.15,0-11.966-.447-1.668,9.464a13.665,13.665,0,0,0,.737,6.455l1.512,3.554,15.543.054c2.087.007,5.468.049,7.537.093l17.609.372a6.332,6.332,0,0,1,5.814,4.612,4,4,0,0,1-.671,3.485,4.1,4.1,0,0,1-3.275,1.49c-.069,0-.139,0-.211,0l-16.942-.687c-.922-.037-2.155-.058-3.472-.058-1.471,0-2.9.026-3.93.071l-26.585,1.174-.362.092a16.821,16.821,0,0,1-3.95.419,19.085,19.085,0,0,1-2.949-.218c-.086,0-.173.008-.265.008s-.181,0-.275-.006l-7.195-.34,6.593,3.122a4.61,4.61,0,0,1,2.518,2.9,4.2,4.2,0,0,1-.587,3.5A5.513,5.513,0,0,1,385.68,892,5.63,5.63,0,0,1,383.315,891.485Zm-3.091-19.271a2.952,2.952,0,0,0,2.048,4.135l6.714,1.7a16.615,16.615,0,0,0,6.871,0l6.714-1.7a2.952,2.952,0,0,0,2.047-4.135l-2.533-5.955H382.757Zm1.112-25.275,2.208,12.525c.03.167.052.345.071.526h17.612c.019-.183.041-.361.071-.527l2.207-12.524a2.879,2.879,0,0,0-2.928-3.5H384.265A2.88,2.88,0,0,0,381.336,846.94Zm-.026-18.74a11.11,11.11,0,1,1,11.11,11.12A11.114,11.114,0,0,1,381.31,828.2Zm16.777-11.177a11.39,11.39,0,0,0-11.288-.029.345.345,0,0,1-.481-.355,6.29,6.29,0,0,1,12.155.064.3.3,0,0,1-.288.346A.2.2,0,0,1,398.087,817.023Z" transform="translate(-354.078 -812)" fill="#fff"/>
</svg>
