<svg xmlns="http://www.w3.org/2000/svg" width="122.323" height="101.6" viewBox="0 0 122.323 101.6">
  <path id="jivamukti" d="M122.382,911.8a11.224,11.224,0,0,1-8.792-5.077L96.564,878.069A16.584,16.584,0,0,1,94.782,867.9l7.205-37.677a9.992,9.992,0,0,1,1.712-3.416,8.418,8.418,0,0,1,1.02-.958c3.34-2.893,19.18-15.65,38.747-15.65,18.587,0,35.039,23.317,35.73,24.31a19.976,19.976,0,0,1,3.1,9.833l.028,9.947a6.993,6.993,0,0,1-.077,1.067,4.87,4.87,0,0,1-.152.858l-6.893,24.98a63.4,63.4,0,0,1-2.2,6.348l-7.944,18.951a3.719,3.719,0,0,1-3.411,2.479h0a4.007,4.007,0,0,1-2.81-1.256l-.374-.373A7.05,7.05,0,0,1,157,900.25l6.721-16.937a36.719,36.719,0,0,0,1.669-5.921l4.386-25.294c.01-.055.024-.108.035-.162l-11.369-9.811a21.378,21.378,0,0,0-7.754-3.893,16.291,16.291,0,0,0-3.349-.3,19.2,19.2,0,0,0-5.256.658l-23.554,7.272c-.208.064-.421.116-.639.162L111.25,869.2a11.766,11.766,0,0,0,.947,7.708l16.258,28.13a4.62,4.62,0,0,1,.284,4.678A4.557,4.557,0,0,1,124.6,911.8Zm28.662-76.5c.174.03.343.062.5.1a21.371,21.371,0,0,1,7.861,3.945l16.242,14.018c1.89,1.632,3.431.922,3.424-1.575l-.027-9.233a17.109,17.109,0,0,0-2.607-8.267s-13.132-18.852-28.33-21.587Zm-36.892-12.317c-.692.441-5.162,4.026-5.162,4.026a4.986,4.986,0,0,0-.508,6.638l5.279,6.646a7.178,7.178,0,0,0,7.161,2.216l20.651-6.375-3.028-23.329C128.194,814.307,119.393,819.338,114.152,822.988Zm77.8,45.949c-.082-.307.309-.625.569-.478a16.844,16.844,0,0,0,16.683-.07.509.509,0,0,1,.714.519A9.3,9.3,0,0,1,201,875.822h-.065A9.3,9.3,0,0,1,191.957,868.937Zm-6.438-11.105a16.178,16.178,0,1,1,15.2,10.608A16.222,16.222,0,0,1,185.52,857.831Z" transform="translate(-94.59 -810.2)" fill="#fff"/>
</svg>
