<svg xmlns="http://www.w3.org/2000/svg" width="122.447" height="60.4" viewBox="0 0 122.447 60.4">
  <path id="vinyasa" d="M116.111,707.2a4.047,4.047,0,0,1-4.075-3.992l-.107-36.941c0-.133.007-.265.019-.4l-.018-8.6a6.149,6.149,0,0,1,5.2-5.939s33.688-4.537,34.886-4.537a5.458,5.458,0,0,1,.608.032l21.075,2.279c1.517.165,3.821.27,5.869.27.768,0,1.449-.014,2.022-.043l19.975-1.008a5.178,5.178,0,0,1,5.5,5.207l0,.625a5.47,5.47,0,0,1-5.4,5.468l-19.254.219c-2.219.024-5.825.177-8.039.341l-14.514,1.068,5.949,14.5a17.476,17.476,0,0,0,4.3,5.776L187.265,695.4a4.94,4.94,0,0,1,.392,7.44l-.033.033a5.758,5.758,0,0,1-4.052,1.646,5.7,5.7,0,0,1-3.742-1.373l-16.824-14.6a41.662,41.662,0,0,1-5.629-6.233l-8.992-12.783c-.19-.026-.376-.058-.558-.1l-6.072-1.444a12.381,12.381,0,0,0-2.722-.266,14.561,14.561,0,0,0-4.34.593L120.227,673.2v30.069a3.979,3.979,0,0,1-4.108,3.929Zm2.256-54.382a4.375,4.375,0,0,0-3.727,4.2l.024,11.674a2.542,2.542,0,0,0,3.577,2.525l15.827-5.279.047-.014-1.888-14.9Zm31.067-4.029-10.356,1.343,2.015,15.431c.07.015.143.028.211.044l5.626,1.319a5.707,5.707,0,0,0,5.686-2.275l1.651-2.562a9.3,9.3,0,0,0,.976-6.705l-1.028-3.511a4.55,4.55,0,0,0-4.268-3.117A3.974,3.974,0,0,0,149.434,648.789Zm-53.2,23.259a11.275,11.275,0,0,1,2.81-22.194,11.326,11.326,0,0,1,2.823.359,11.275,11.275,0,0,1-2.811,22.194A11.356,11.356,0,0,1,96.234,672.048Zm-10.1-12.217a6.334,6.334,0,0,1,6.95-10.076.293.293,0,0,1,.048.5,11.471,11.471,0,0,0-6.429,9.373.356.356,0,0,1-.361.288A.266.266,0,0,1,86.136,659.831Z" transform="translate(-84.62 -646.8)" fill="#fff"/>
</svg>
