<svg xmlns="http://www.w3.org/2000/svg" width="122.434" height="73" viewBox="0 0 122.434 73">
  <path id="yin" d="M607.125,891.642c-.024,0-.048,0-.073,0a5.028,5.028,0,0,1-.689-.049l-28.5-3.882a52.615,52.615,0,0,0-6.211-.374c-.442,0-.846.008-1.2.023l-17.3.7a4.228,4.228,0,0,1-3.559-1.516,4.075,4.075,0,0,1-.685-3.555,6.466,6.466,0,0,1,5.937-4.705l17.981-.379c.823-.018,1.847-.035,2.913-.049q-.138-.113-.265-.24a3.778,3.778,0,0,1,.091-5.335L597.8,850.05c.05-.051.1-.107.151-.155a3.975,3.975,0,0,1,2.516-1.143,5.082,5.082,0,0,1,.6-.054h17.661c.149,0,.3.024.442.037.008,0,.015.013.023.013a3.94,3.94,0,0,1,2.758,1.151l22.466,22.388a3.868,3.868,0,0,1,1.152,2.75,3.621,3.621,0,0,1-1.057,2.584,3.492,3.492,0,0,1-.265.239c1.06.015,2.077.032,2.9.049l17.981.379a6.465,6.465,0,0,1,5.936,4.705,4.073,4.073,0,0,1-.684,3.555,4.19,4.19,0,0,1-3.344,1.52c-.071,0-.143,0-.215,0l-17.3-.7c-.355-.014-.759-.023-1.2-.023a52.627,52.627,0,0,0-6.211.374l-28.5,3.882a5.041,5.041,0,0,1-.69.049c-.075,0-.146-.007-.219-.011a10.938,10.938,0,0,1-5.58.007Zm-9-12.061a3.851,3.851,0,0,0,1.746,4.829l6.947,3.474a7.8,7.8,0,0,0,6.172,0l6.946-3.474a3.84,3.84,0,0,0,1.746-4.821l-2.171-5.316H600.288Zm22.649-12.026a13.949,13.949,0,0,0,.753,6.589l1.543,3.633,16.384.076h.048c-.111,0-.218-.2-.32-.3l-17.145-17.159Zm-39.961,9.994c-.1.1-.209.3-.319.3h.031l16.214-.074,1.543-3.642a13.935,13.935,0,0,0,.753-6.583l-1.236-7ZM599.2,854.2l2.131,12.545a9.244,9.244,0,0,1,.113,1.137h16.921a9.314,9.314,0,0,1,.111-1.1l2.132-12.578a2.813,2.813,0,0,0-2.828-3.453H602.026A2.812,2.812,0,0,0,599.2,854.2Zm-.638-18.677a11.34,11.34,0,1,1,11.34,11.34A11.34,11.34,0,0,1,598.56,835.52Zm17.128-11.4a11.641,11.641,0,0,0-11.526-.03.353.353,0,0,1-.491-.363,6.425,6.425,0,0,1,12.413.066.31.31,0,0,1-.294.353A.2.2,0,0,1,615.688,824.124Z" transform="translate(-548.771 -819)" fill="#fff"/>
</svg>
